# xmcd
#
# Track frame offsets:
#	150
#	2602
#	9444
#	15174
#	27610
#	34595
#	39634
#	47643
#	54705
#	60819
#	67311
#	75379
#	82136
#	91056
#	98614
#	103354
#	109137
#	116618
#	127505
#	131832
#	142214
#	149135
#	154655
#	161440
#	176284
#	192292
#	199177
#	212758
#	221241
#	227947
#	237354
#	243759
#	250157
#	256861
#	261850
#	271639
#	290646
#	300851
#	312288
#
# Disc length: 4417 seconds
#
# Revision: 1
# Processed by: cddbd v1.5.2PL0 Copyright (c) Steve Scherf et al.
# Submitted via: audiograbber 1.83.01
#
DISCID=1d113f27
DTITLE=Various Artist - Dreamteam präsentiert Love Fever (Volume 1, Dj Promo, 
DTITLE=gemixt von Pit and Joe)'99
DYEAR=1999
DGENRE=Pop
TTITLE0=Pit and Joe - Dreamteam ''Intro''
TTITLE1=Dune - Nothing Compares 2 U'97
TTITLE2=Breathe - How Can I Fall'87
TTITLE3=Justian and Mandy - More Than I Can Say'89
TTITLE4=Olivia Newton-John and Cliff Richard - Suddenly'80
TTITLE5=Natalie Cole - Miss You Like Crazy'89
TTITLE6=Elton John - Something About The Way You Look Tonight'94
TTITLE7=Soultans - I Know'97
TTITLE8=East 17 feat. Gabrielle - If You Ever'96
TTITLE9=All-4-One - So Much In Love'93
TTITLE10=Babyface - Everytime I Close My Eyes'97
TTITLE11=Christopher Cross - Sailing'79
TTITLE12=No Mercy - When I Die'96
TTITLE13=Mr.President feat. Münchener Freiheit - Where Do I Belong'97
TTITLE14=The Boyz - One Minute'97
TTITLE15=John Lennon - Woman'80
TTITLE16=Wet Wet Wet - If I Never See You Again'97
TTITLE17=Spice Girls - Too Much'97
TTITLE18=R. Kelly - Gotham City'97
TTITLE19=Sade - No Ordinary Love'92
TTITLE20=Sheena Easton - For Your Eyes Only'81
TTITLE21=Construction - My Heart Is Always Open'96
TTITLE22='N Sync - For The Girl Who Has Everything'97
TTITLE23=Genesis - Hold On My Heart'92
TTITLE24=Simply Red - Holding Back The Years'85
TTITLE25=Gary Barlow - So Help Me Girl'97
TTITLE26=George Michael - Jesus To A Child'95
TTITLE27=Stevie Wonder - You Will Know'87
TTITLE28=Human Nature - Whisper Your Name'97
TTITLE29=Caught In The Act - Babe'97
TTITLE30=Rod Stewart - If We Fall In Love Tonight'96
TTITLE31=Richard Marx - Right Here Waiting'89
TTITLE32=Boyzone - Isn't It A Wonder'97
TTITLE33=Cappuccino - Du Fehlst Mir'97
TTITLE34=Eros Ramazotti - Buona Vita'96
TTITLE35=Eros Ramazotti - Lo Amero'96
TTITLE36=Eros Ramazotti - Occhi Di Speranza'86
TTITLE37=Eros Ramazotti - Adesso Tu'86
TTITLE38=Eros Ramazotti - Quasi Amore'96
EXTD=
EXTT0=
EXTT1=
EXTT2=
EXTT3=
EXTT4=
EXTT5=
EXTT6=
EXTT7=
EXTT8=
EXTT9=
EXTT10=
EXTT11=
EXTT12=
EXTT13=
EXTT14=
EXTT15=
EXTT16=
EXTT17=
EXTT18=
EXTT19=
EXTT20=
EXTT21=
EXTT22=
EXTT23=
EXTT24=
EXTT25=
EXTT26=
EXTT27=
EXTT28=
EXTT29=
EXTT30=
EXTT31=
EXTT32=
EXTT33=
EXTT34=
EXTT35=
EXTT36=
EXTT37=
EXTT38=
PLAYORDER=
